<?xml version="1.0" standalone="no"?>
<!DOCTYPE svg PUBLIC "-//W3C//DTD SVG 20010904//EN"
 "http://www.w3.org/TR/2001/REC-SVG-20010904/DTD/svg10.dtd">
<svg version="1.0" xmlns="http://www.w3.org/2000/svg"
 width="126.000000pt" height="126.000000pt" viewBox="0 0 126.000000 126.000000"
 preserveAspectRatio="xMidYMid meet">
<metadata>
Created by potrace 1.11, written by Peter Selinger 2001-2013
</metadata>
<g transform="translate(0.000000,126.000000) scale(0.100000,-0.100000)"
fill="#000000" stroke="none">
<path d="M522 1239 c-176 -31 -360 -169 -442 -329 -70 -137 -85 -331 -37 -470
39 -114 73 -167 161 -255 129 -127 258 -179 441 -178 166 1 291 52 418 172
395 373 147 1041 -395 1066 -51 2 -117 0 -146 -6z m263 -100 c17 -7 31 -14 33
-15 2 -1 -6 -21 -18 -43 -11 -23 -18 -46 -15 -51 3 -6 2 -10 -3 -10 -18 0 -21
13 -7 34 19 26 19 60 0 76 -22 18 -48 8 -65 -25 -18 -37 -53 -41 -58 -7 -3 22
4 26 42 22 11 -1 17 3 14 12 -3 7 -19 14 -36 16 -26 3 -34 -1 -44 -22 -8 -20
-8 -32 0 -51 11 -23 10 -25 -13 -25 -14 0 -25 5 -25 10 0 6 -12 10 -27 11 -28
0 -28 0 -4 10 19 8 22 14 16 36 -3 16 -12 32 -18 36 -19 14 195 0 228 -14z
m-259 4 c-15 -4 -17 -12 -13 -46 l6 -42 -18 40 c-16 36 -17 41 -2 47 9 4 23 6
31 6 9 0 7 -2 -4 -5z m-59 -33 c2 -24 -3 -25 -23 -6 -11 11 -11 16 -1 19 21 9
23 8 24 -13z m439 -26 c117 -70 197 -172 239 -306 38 -121 34 -227 -12 -341
-28 -68 -87 -159 -129 -199 -44 -41 -140 -95 -208 -117 -102 -34 -249 -40
-231 -11 4 6 13 5 24 -2 30 -18 51 -3 51 37 0 25 4 35 16 35 12 0 14 -5 9 -17
-4 -10 -10 -28 -12 -41 -8 -33 16 -27 28 8 9 25 13 28 29 17 14 -8 16 -13 7
-19 -17 -11 -1 -21 22 -13 25 8 29 65 6 88 -12 13 -8 17 33 32 59 21 146 79
166 110 14 22 17 22 53 9 46 -16 83 -18 83 -4 0 6 -11 23 -25 37 -30 33 -26
39 13 19 28 -14 42 -13 42 5 0 4 -8 10 -17 12 -14 4 -13 5 3 6 39 2 37 30 -3
46 -19 8 -39 15 -44 15 -5 0 -9 8 -9 18 0 11 3 13 8 5 4 -6 20 -17 36 -23 24
-9 32 -7 47 6 34 31 18 74 -28 74 -16 0 -23 6 -23 20 0 25 8 25 36 -1 27 -26
44 -18 44 21 0 35 -19 50 -27 21 -5 -19 -6 -20 -29 -3 -33 24 -30 32 16 32 28
0 40 4 40 14 0 22 -14 26 -48 17 -17 -5 -33 -7 -36 -4 -11 11 15 31 33 26 24
-6 42 18 34 46 -5 21 -10 22 -45 17 l-39 -6 33 30 c41 37 28 49 -41 40 -41 -5
-50 -3 -61 13 -10 17 -9 22 6 31 11 6 30 13 43 16 31 6 40 30 12 30 -14 0 -19
5 -15 14 7 17 -54 88 -68 80 -5 -3 -7 -12 -4 -20 7 -19 -37 -69 -53 -60 -8 5
-2 19 19 47 18 22 28 44 24 50 -5 9 -11 6 -21 -7 -13 -18 -13 -17 -11 6 5 40
-24 35 -51 -9 -14 -22 -29 -37 -34 -34 -5 3 -5 8 0 12 15 10 43 55 43 68 0 25
-26 13 -37 -18 -7 -17 -17 -28 -22 -24 -7 4 -6 16 4 36 9 16 13 34 10 39 -11
18 11 10 71 -26z m-482 -55 c-13 -15 -20 -16 -31 -8 -20 17 -16 39 10 48 20 8
21 10 4 16 -14 6 -16 10 -6 16 9 5 17 -2 26 -23 12 -27 11 -34 -3 -49z m336
56 c0 -16 -6 -25 -15 -25 -15 0 -21 31 -8 43 13 14 23 6 23 -18z m-407 -25
c-7 -25 22 -70 45 -71 10 0 12 -3 5 -6 -7 -2 -28 7 -46 21 -34 26 -67 34 -67
17 0 -5 9 -30 20 -55 11 -27 15 -48 10 -51 -17 -10 -28 3 -23 28 9 44 -48 62
-64 21 -4 -12 3 -25 23 -41 34 -27 33 -27 -24 -10 l-43 13 47 53 c37 41 98 92
121 100 0 1 -1 -8 -4 -19z m140 -14 c6 -14 0 -26 -14 -26 -3 0 -9 9 -12 20 -6
23 18 28 26 6z m217 4 c0 -5 -4 -10 -10 -10 -5 0 -10 5 -10 10 0 6 5 10 10 10
6 0 10 -4 10 -10z m36 -45 c85 -25 169 -87 214 -157 42 -64 57 -104 45 -116
-3 -4 -11 2 -17 12 -41 73 -150 146 -218 146 -20 0 -53 9 -74 19 -30 16 -53
19 -114 16 -98 -4 -182 -19 -221 -39 -43 -23 -48 -20 -20 10 96 104 268 150
405 109z m140 -32 c-11 -11 -17 4 -9 23 7 18 8 18 11 1 2 -10 1 -21 -2 -24z
m-507 -6 c-2 -1 -12 -9 -21 -16 -15 -12 -18 -11 -18 3 0 10 8 16 22 16 12 0
19 -1 17 -3z m628 -13 c2 -6 -6 -23 -18 -38 -20 -25 -22 -26 -40 -11 -17 16
-17 18 9 41 27 24 43 26 49 8z m-792 -96 c11 -13 25 -27 31 -29 7 -3 7 -14 -3
-37 -12 -28 -16 -31 -33 -22 -16 9 -18 15 -10 30 13 25 -2 26 -26 3 -17 -17
-18 -17 -11 1 5 11 3 22 -3 26 -8 5 -6 18 7 44 11 24 19 32 23 23 3 -7 14 -25
25 -39z m414 1 l21 -23 0 22 c0 18 6 22 29 22 22 0 35 -9 55 -39 27 -38 27
-40 11 -65 -16 -23 -16 -26 -1 -26 10 0 13 -5 9 -17 -4 -11 -3 -14 5 -9 8 5
12 0 12 -13 0 -11 -7 -24 -16 -29 -20 -11 -9 -59 17 -73 23 -12 25 -89 2 -89
-7 0 -13 -4 -13 -9 0 -13 -94 -32 -98 -20 -2 5 -10 9 -17 9 -8 0 -17 9 -20 20
-3 11 -13 20 -21 20 -17 0 -19 -31 -2 -48 15 -15 8 -15 -26 -2 -21 7 -26 6
-26 -5 0 -8 -9 -15 -20 -15 -26 0 -26 -17 -1 -25 12 -4 18 -12 15 -20 -5 -12
-8 -12 -21 1 -9 8 -26 22 -39 31 -16 10 -24 25 -24 42 0 15 -5 32 -11 38 -7 7
-9 22 -4 40 11 40 6 86 -11 99 -22 17 -17 25 11 18 27 -7 36 12 10 22 -21 8
-19 21 5 27 11 3 20 10 20 16 0 6 -7 8 -15 5 -10 -4 -15 0 -15 15 0 21 -22 27
-54 15 -22 -9 -20 -24 3 -24 11 0 23 -5 26 -10 5 -8 -9 -9 -42 -5 -40 6 -52 3
-76 -15 -15 -12 -35 -36 -44 -53 -9 -18 -18 -27 -20 -20 -6 16 30 84 59 110
33 31 96 56 124 49 18 -5 24 -2 24 10 0 14 -7 16 -40 11 -43 -5 -54 8 -18 22
12 4 65 9 119 10 89 2 99 0 118 -20z m-351 0 c-2 -6 -8 -10 -13 -10 -5 0 -11
4 -13 10 -2 6 4 11 13 11 9 0 15 -5 13 -11z m566 -16 c20 -10 36 -21 36 -24 0
-11 -74 -17 -84 -8 -6 6 -5 9 4 9 11 0 11 3 2 12 -30 30 -8 36 42 11z m197
-46 c-1 -12 -15 -9 -19 4 -3 6 1 10 8 8 6 -3 11 -8 11 -12z m-74 -89 c-8 -13
-24 -18 -53 -18 -23 0 -58 -7 -77 -15 -51 -21 -60 -19 -41 10 9 14 23 25 31
25 7 0 25 11 39 25 26 26 34 25 72 -8 12 -11 22 -16 22 -10 0 6 -14 23 -31 37
-18 15 -27 31 -23 38 5 8 18 -1 40 -27 26 -32 30 -42 21 -57z m-808 44 c-13
-2 -30 -9 -38 -15 -12 -10 -13 -9 -8 6 4 10 7 22 7 27 0 5 14 3 31 -3 30 -11
30 -12 8 -15z m711 19 c0 -12 -20 -25 -27 -18 -7 7 6 27 18 27 5 0 9 -4 9 -9z
m-655 -32 c11 -17 -1 -21 -15 -4 -8 9 -8 15 -2 15 6 0 14 -5 17 -11z m158 -19
c-6 -22 12 -28 21 -7 3 6 3 0 0 -15 -4 -17 -2 -28 5 -28 6 0 11 -5 11 -11 0
-7 -10 -9 -27 -4 -36 9 -38 12 -23 30 11 14 10 17 -10 22 -22 6 -22 7 -5 20
26 18 34 16 28 -7z m692 10 c-3 -5 -10 -10 -16 -10 -5 0 -9 5 -9 10 0 6 7 10
16 10 8 0 12 -4 9 -10z m-875 -26 c0 -10 -7 -14 -22 -12 -32 5 -35 28 -4 28
17 0 26 -5 26 -16z m-1 -37 c26 9 28 9 23 -11 -3 -11 -11 -25 -19 -29 -7 -4
-13 -15 -13 -22 0 -10 -11 -15 -35 -15 -25 0 -35 -4 -35 -16 0 -13 8 -15 40
-12 22 2 40 3 40 2 0 -8 -74 -43 -79 -39 -3 4 -8 45 -10 92 l-3 85 31 -23 c27
-20 36 -22 60 -12z m881 -91 c0 -3 -4 -8 -10 -11 -5 -3 -10 -1 -10 4 0 6 5 11
10 11 6 0 10 -2 10 -4z m-852 -65 c-15 -5 -21 7 -13 26 7 17 8 17 15 -2 4 -11
3 -22 -2 -24z m193 1 c4 -18 3 -32 -2 -32 -11 0 -29 34 -29 55 0 28 24 10 31
-23z m698 29 c13 -8 8 -31 -7 -31 -17 1 -34 19 -28 29 9 13 16 14 35 2z m-894
-68 c8 -23 -5 -31 -16 -10 -16 27 -32 21 -25 -10 l7 -28 -21 25 c-13 17 -20
20 -20 10 -1 -10 -4 -9 -10 5 -5 11 -9 22 -9 25 -1 3 19 4 43 2 29 -3 47 -9
51 -19z m835 -11 c0 -5 -7 -9 -15 -9 -8 0 -15 4 -15 9 0 4 7 8 15 8 8 0 15 -4
15 -8z m-790 -34 c0 -6 -3 -8 -6 -5 -4 3 -15 2 -26 -4 -15 -8 -18 -17 -14 -35
4 -14 2 -24 -4 -24 -5 0 -10 7 -10 16 0 11 -6 15 -19 11 -12 -3 -22 1 -25 10
-3 8 -1 11 4 8 5 -3 26 3 47 14 45 24 53 25 53 9z m320 -16 c0 -5 11 -15 25
-22 30 -16 32 -30 5 -30 -11 0 -20 5 -20 10 0 6 -9 10 -20 10 -19 0 -27 20
-13 33 9 10 23 9 23 -1z m430 -17 c0 -8 -7 -15 -15 -15 -16 0 -20 12 -8 23 11
12 23 8 23 -8z m-750 -20 c0 -7 7 -16 16 -19 12 -4 14 -1 9 14 -4 13 12 2 43
-29 58 -58 141 -107 196 -117 31 -5 36 -8 23 -16 -12 -6 -15 -17 -11 -32 3
-14 -1 -27 -10 -35 -9 -7 -13 -18 -9 -24 21 -33 -152 44 -222 100 -53 42 -135
146 -97 122 28 -18 56 5 47 39 -4 15 -2 21 5 17 5 -3 10 -12 10 -20z m280 -30
c22 -30 40 -57 40 -61 0 -3 -12 -3 -26 0 -21 6 -27 3 -31 -14 -11 -41 -28 -13
-28 46 -1 33 -4 65 -9 72 -4 6 -3 12 3 12 6 0 29 -25 51 -55z m53 -142 c-7 -2
-13 -18 -13 -33 0 -16 -5 -32 -12 -36 -8 -5 -9 -2 -5 10 4 10 7 29 7 42 0 16
5 24 18 23 10 0 12 -3 5 -6z m54 1 c-3 -3 -12 -4 -19 -1 -8 3 -5 6 6 6 11 1
17 -2 13 -5z"/>
<path d="M864 254 c-18 -14 -18 -15 4 -4 12 6 22 13 22 15 0 8 -5 6 -26 -11z"/>
<path d="M932 234 c1 -9 9 -19 16 -22 9 -3 13 2 10 14 -1 9 -9 19 -16 22 -9 3
-13 -2 -10 -14z"/>
<path d="M823 183 c9 -9 20 -13 24 -9 4 4 1 11 -7 16 -25 16 -35 11 -17 -7z"/>
<path d="M867 185 c6 -17 25 -15 31 3 2 7 -5 12 -17 12 -14 0 -19 -5 -14 -15z"/>
<path d="M797 159 c3 -11 12 -19 20 -17 20 4 18 21 -5 29 -16 6 -19 4 -15 -12z"/>
<path d="M186 857 c3 -10 9 -15 12 -12 3 3 0 11 -7 18 -10 9 -11 8 -5 -6z"/>
<path d="M508 756 c-25 -18 -22 -24 7 -18 18 3 25 0 25 -12 0 -10 -6 -13 -15
-10 -32 13 -9 -20 30 -42 24 -14 34 -40 11 -31 -9 4 -16 2 -16 -3 0 -5 10 -12
23 -15 12 -4 32 -16 43 -27 13 -11 24 -15 28 -10 8 14 -18 61 -43 78 -12 9
-21 22 -21 31 0 16 -37 73 -48 73 -4 0 -15 -7 -24 -14z"/>
<path d="M705 600 c3 -5 12 -7 20 -3 21 7 19 13 -6 13 -11 0 -18 -4 -14 -10z"/>
<path d="M680 519 c0 -5 5 -7 10 -4 6 3 10 8 10 11 0 2 -4 4 -10 4 -5 0 -10
-5 -10 -11z"/>
<path d="M315 230 c-3 -6 1 -13 10 -16 19 -8 30 0 20 15 -8 14 -22 14 -30 1z"/>
<path d="M380 185 c0 -8 7 -15 15 -15 8 0 15 7 15 15 0 8 -7 15 -15 15 -8 0
-15 -7 -15 -15z"/>
<path d="M445 159 c-10 -15 1 -23 20 -15 9 3 13 10 10 16 -8 13 -22 13 -30 -1z"/>
</g>
</svg>
